<?xml version="1.0" standalone="no"?>
<svg xmlnsXlink="http://www.w3.org/1999/xlink" id="wave" style="transform:rotate(0deg); transition: 0.3s" viewBox="0 0 1440 490" version="1.1" xmlns="http://www.w3.org/2000/svg"><defs><linearGradient id="sw-gradient-0" x1="0" x2="0" y1="1" y2="0"><stop stop-color="rgba(227, 226, 226, 1)" offset="0%"/><stop stop-color="rgba(222, 220, 220, 1)" offset="100%"/></linearGradient></defs><path style="transform:translate(0, 0px); opacity:1" fill="url(#sw-gradient-0)" d="M0,196L26.7,163.3C53.3,131,107,65,160,49C213.3,33,267,65,320,106.2C373.3,147,427,196,480,220.5C533.3,245,587,245,640,269.5C693.3,294,747,343,800,343C853.3,343,907,294,960,269.5C1013.3,245,1067,245,1120,212.3C1173.3,180,1227,114,1280,98C1333.3,82,1387,114,1440,171.5C1493.3,229,1547,310,1600,318.5C1653.3,327,1707,261,1760,245C1813.3,229,1867,261,1920,302.2C1973.3,343,2027,392,2080,392C2133.3,392,2187,343,2240,318.5C2293.3,294,2347,294,2400,294C2453.3,294,2507,294,2560,277.7C2613.3,261,2667,229,2720,220.5C2773.3,212,2827,229,2880,253.2C2933.3,278,2987,310,3040,318.5C3093.3,327,3147,310,3200,253.2C3253.3,196,3307,98,3360,49C3413.3,0,3467,0,3520,32.7C3573.3,65,3627,131,3680,163.3C3733.3,196,3787,196,3813,196L3840,196L3840,490L3813.3,490C3786.7,490,3733,490,3680,490C3626.7,490,3573,490,3520,490C3466.7,490,3413,490,3360,490C3306.7,490,3253,490,3200,490C3146.7,490,3093,490,3040,490C2986.7,490,2933,490,2880,490C2826.7,490,2773,490,2720,490C2666.7,490,2613,490,2560,490C2506.7,490,2453,490,2400,490C2346.7,490,2293,490,2240,490C2186.7,490,2133,490,2080,490C2026.7,490,1973,490,1920,490C1866.7,490,1813,490,1760,490C1706.7,490,1653,490,1600,490C1546.7,490,1493,490,1440,490C1386.7,490,1333,490,1280,490C1226.7,490,1173,490,1120,490C1066.7,490,1013,490,960,490C906.7,490,853,490,800,490C746.7,490,693,490,640,490C586.7,490,533,490,480,490C426.7,490,373,490,320,490C266.7,490,213,490,160,490C106.7,490,53,490,27,490L0,490Z"/><defs><linearGradient id="sw-gradient-1" x1="0" x2="0" y1="1" y2="0"><stop stop-color="rgba(5, 180, 218, 1)" offset="0%"/><stop stop-color="rgba(22, 219, 147, 1)" offset="100%"/></linearGradient></defs><path style="transform:translate(0, 50px); opacity:0.9" fill="url(#sw-gradient-1)" d="M0,343L26.7,334.8C53.3,327,107,310,160,269.5C213.3,229,267,163,320,147C373.3,131,427,163,480,187.8C533.3,212,587,229,640,196C693.3,163,747,82,800,106.2C853.3,131,907,261,960,269.5C1013.3,278,1067,163,1120,130.7C1173.3,98,1227,147,1280,196C1333.3,245,1387,294,1440,302.2C1493.3,310,1547,278,1600,253.2C1653.3,229,1707,212,1760,196C1813.3,180,1867,163,1920,196C1973.3,229,2027,310,2080,334.8C2133.3,359,2187,327,2240,261.3C2293.3,196,2347,98,2400,49C2453.3,0,2507,0,2560,57.2C2613.3,114,2667,229,2720,236.8C2773.3,245,2827,147,2880,147C2933.3,147,2987,245,3040,277.7C3093.3,310,3147,278,3200,294C3253.3,310,3307,376,3360,343C3413.3,310,3467,180,3520,163.3C3573.3,147,3627,245,3680,236.8C3733.3,229,3787,114,3813,57.2L3840,0L3840,490L3813.3,490C3786.7,490,3733,490,3680,490C3626.7,490,3573,490,3520,490C3466.7,490,3413,490,3360,490C3306.7,490,3253,490,3200,490C3146.7,490,3093,490,3040,490C2986.7,490,2933,490,2880,490C2826.7,490,2773,490,2720,490C2666.7,490,2613,490,2560,490C2506.7,490,2453,490,2400,490C2346.7,490,2293,490,2240,490C2186.7,490,2133,490,2080,490C2026.7,490,1973,490,1920,490C1866.7,490,1813,490,1760,490C1706.7,490,1653,490,1600,490C1546.7,490,1493,490,1440,490C1386.7,490,1333,490,1280,490C1226.7,490,1173,490,1120,490C1066.7,490,1013,490,960,490C906.7,490,853,490,800,490C746.7,490,693,490,640,490C586.7,490,533,490,480,490C426.7,490,373,490,320,490C266.7,490,213,490,160,490C106.7,490,53,490,27,490L0,490Z"/></svg>